# xmcd
# 
# Track frame offsets:
#     150
#     17014
#     32489
#     49739
#     67487
#     82262
#     94187
#     116247
#     128518
#     143143
#     159943
#     186493
# 
# Disc length: 2746
# 
# Revision: 0
# Processed by: cddbd v1.5.2PL0 Copyright (c) Steve Scherf et al.
# Submitted via: fre:ac v1.0.31
# 
DISCID=a90ab80c
DTITLE=Bruce Rundman - True North
DYEAR=2003
DGENRE=American Band Rock
TTITLE0=She Danced Like Elvis
TTITLE1=Ransom Hill
TTITLE2=Unwrapped
TTITLE3=Preparing for Angels
TTITLE4=Carry On
TTITLE5=Nancy Drew
TTITLE6=Ireland
TTITLE7=Packing Tape
TTITLE8=Quiet Sound
TTITLE9=Fall Back Down
TTITLE10=Liberty Island
TTITLE11=Three Tiered World
EXTD=
EXTT0=
EXTT1=
EXTT2=
EXTT3=
EXTT4=
EXTT5=
EXTT6=
EXTT7=
EXTT8=
EXTT9=
EXTT10=
EXTT11=
PLAYORDER=
